<mxfile host="65bd71144e">
    <diagram id="xnUkQfgUfg--KisKvy0v" name="Page-1">
        <mxGraphModel dx="473" dy="626" grid="1" gridSize="10" guides="1" tooltips="1" connect="1" arrows="1" fold="1" page="1" pageScale="1" pageWidth="850" pageHeight="1100" math="0" shadow="0">
            <root>
                <mxCell id="0"/>
                <mxCell id="1" parent="0"/>
                <mxCell id="2" value="App.js" style="swimlane;" parent="1" vertex="1">
                    <mxGeometry x="240" y="40" width="120" height="120" as="geometry"/>
                </mxCell>
                <mxCell id="5" value="Meals.js" style="swimlane;" parent="1" vertex="1">
                    <mxGeometry x="240" y="250" width="120" height="120" as="geometry">
                        <mxRectangle x="240" y="250" width="80" height="23" as="alternateBounds"/>
                    </mxGeometry>
                </mxCell>
                <mxCell id="21" value="&amp;lt;AvailableMeals&amp;gt;" style="text;html=1;align=center;verticalAlign=middle;resizable=0;points=[];autosize=1;strokeColor=none;fillColor=none;" parent="5" vertex="1">
                    <mxGeometry x="5" y="70" width="110" height="20" as="geometry"/>
                </mxCell>
                <mxCell id="20" value="&amp;lt;MealsSummary&amp;gt;" style="text;html=1;align=center;verticalAlign=middle;resizable=0;points=[];autosize=1;strokeColor=none;fillColor=none;" parent="5" vertex="1">
                    <mxGeometry x="5" y="40" width="110" height="20" as="geometry"/>
                </mxCell>
                <mxCell id="6" value="MealsSummary" style="swimlane;" parent="1" vertex="1">
                    <mxGeometry x="120" y="400" width="120" height="120" as="geometry">
                        <mxRectangle x="120" y="400" width="120" height="23" as="alternateBounds"/>
                    </mxGeometry>
                </mxCell>
                <mxCell id="26" value="&amp;lt;h2&amp;gt;&lt;br&gt;&amp;lt;p&amp;gt;" style="text;html=1;align=center;verticalAlign=middle;resizable=0;points=[];autosize=1;strokeColor=none;fillColor=none;" parent="6" vertex="1">
                    <mxGeometry x="30" y="40" width="40" height="30" as="geometry"/>
                </mxCell>
                <mxCell id="7" value="AvailableMeals" style="swimlane;" parent="1" vertex="1">
                    <mxGeometry x="360" y="400" width="200" height="220" as="geometry">
                        <mxRectangle x="360" y="400" width="120" height="23" as="alternateBounds"/>
                    </mxGeometry>
                </mxCell>
                <mxCell id="14" value="Dummy Data&lt;br&gt;&lt;br&gt;Function&lt;br&gt;mealsList = &amp;lt;MealItem /&amp;gt;&amp;nbsp;&lt;br&gt;Map MealItem&lt;br&gt;&lt;br&gt;Return &lt;br&gt;&amp;lt;Card &lt;br&gt;{mealsList} = &amp;lt;MealItem /&amp;gt;&lt;br&gt;/&amp;gt;" style="text;html=1;align=center;verticalAlign=middle;resizable=0;points=[];autosize=1;strokeColor=none;fillColor=none;" parent="7" vertex="1">
                    <mxGeometry x="20" y="35" width="160" height="150" as="geometry"/>
                </mxCell>
                <mxCell id="9" value="Header&lt;br&gt;Title &amp;amp; Cart" style="rounded=1;whiteSpace=wrap;html=1;" parent="1" vertex="1">
                    <mxGeometry x="240" y="190" width="120" height="40" as="geometry"/>
                </mxCell>
                <mxCell id="11" value="" style="endArrow=classic;startArrow=classic;html=1;exitX=0.5;exitY=0;exitDx=0;exitDy=0;entryX=0.5;entryY=1;entryDx=0;entryDy=0;" parent="1" source="6" target="5" edge="1">
                    <mxGeometry width="50" height="50" relative="1" as="geometry">
                        <mxPoint x="320" y="340" as="sourcePoint"/>
                        <mxPoint x="370" y="290" as="targetPoint"/>
                    </mxGeometry>
                </mxCell>
                <mxCell id="12" value="" style="endArrow=classic;startArrow=classic;html=1;exitX=0.5;exitY=1;exitDx=0;exitDy=0;entryX=0.5;entryY=0;entryDx=0;entryDy=0;" parent="1" source="5" target="7" edge="1">
                    <mxGeometry width="50" height="50" relative="1" as="geometry">
                        <mxPoint x="320" y="340" as="sourcePoint"/>
                        <mxPoint x="370" y="290" as="targetPoint"/>
                    </mxGeometry>
                </mxCell>
                <mxCell id="15" value="MealItem" style="swimlane;" parent="1" vertex="1">
                    <mxGeometry x="280" y="640" width="120" height="120" as="geometry">
                        <mxRectangle x="235" y="600" width="80" height="23" as="alternateBounds"/>
                    </mxGeometry>
                </mxCell>
                <mxCell id="19" value="Name&amp;nbsp;&lt;br&gt;Description&lt;br&gt;Price" style="text;html=1;align=center;verticalAlign=middle;resizable=0;points=[];autosize=1;strokeColor=none;fillColor=none;" parent="15" vertex="1">
                    <mxGeometry x="20" y="40" width="80" height="50" as="geometry"/>
                </mxCell>
                <mxCell id="16" value="" style="endArrow=classic;startArrow=classic;html=1;exitX=0.5;exitY=0;exitDx=0;exitDy=0;entryX=0.5;entryY=1;entryDx=0;entryDy=0;" parent="1" source="15" target="7" edge="1">
                    <mxGeometry width="50" height="50" relative="1" as="geometry">
                        <mxPoint x="320" y="420" as="sourcePoint"/>
                        <mxPoint x="370" y="370" as="targetPoint"/>
                    </mxGeometry>
                </mxCell>
                <mxCell id="17" value="Card" style="swimlane;" parent="1" vertex="1">
                    <mxGeometry x="480" y="640" width="120" height="120" as="geometry">
                        <mxRectangle x="480" y="600" width="60" height="23" as="alternateBounds"/>
                    </mxGeometry>
                </mxCell>
                <mxCell id="18" value="" style="endArrow=classic;startArrow=classic;html=1;entryX=0.5;entryY=0;entryDx=0;entryDy=0;exitX=0.5;exitY=1;exitDx=0;exitDy=0;" parent="1" source="7" target="17" edge="1">
                    <mxGeometry width="50" height="50" relative="1" as="geometry">
                        <mxPoint x="360" y="410" as="sourcePoint"/>
                        <mxPoint x="410" y="360" as="targetPoint"/>
                    </mxGeometry>
                </mxCell>
                <mxCell id="22" value="&amp;lt;Header /&amp;gt;&lt;br&gt;&amp;lt;Meals /&amp;gt;" style="text;html=1;align=center;verticalAlign=middle;resizable=0;points=[];autosize=1;strokeColor=none;fillColor=none;" parent="1" vertex="1">
                    <mxGeometry x="260" y="75" width="80" height="30" as="geometry"/>
                </mxCell>
                <mxCell id="23" value="" style="endArrow=classic;startArrow=classic;html=1;entryX=0.5;entryY=1;entryDx=0;entryDy=0;exitX=0.5;exitY=0;exitDx=0;exitDy=0;" parent="1" source="9" target="2" edge="1">
                    <mxGeometry width="50" height="50" relative="1" as="geometry">
                        <mxPoint x="340" y="370" as="sourcePoint"/>
                        <mxPoint x="390" y="320" as="targetPoint"/>
                    </mxGeometry>
                </mxCell>
                <mxCell id="25" value="" style="curved=1;endArrow=classic;html=1;entryX=0.5;entryY=1;entryDx=0;entryDy=0;" parent="1" target="2" edge="1">
                    <mxGeometry width="50" height="50" relative="1" as="geometry">
                        <mxPoint x="300" y="250" as="sourcePoint"/>
                        <mxPoint x="390" y="320" as="targetPoint"/>
                        <Array as="points">
                            <mxPoint x="210" y="240"/>
                            <mxPoint x="200" y="160"/>
                        </Array>
                    </mxGeometry>
                </mxCell>
                <mxCell id="31" value="{mealsList}" style="text;html=1;align=center;verticalAlign=middle;resizable=0;points=[];autosize=1;strokeColor=none;fillColor=none;" parent="1" vertex="1">
                    <mxGeometry x="505" y="680" width="70" height="20" as="geometry"/>
                </mxCell>
                <mxCell id="32" value="MealItemForm" style="swimlane;" parent="1" vertex="1">
                    <mxGeometry x="180" y="800" width="120" height="120" as="geometry">
                        <mxRectangle x="235" y="600" width="80" height="23" as="alternateBounds"/>
                    </mxGeometry>
                </mxCell>
                <mxCell id="33" value="&amp;lt;form&amp;gt;&lt;br&gt;&amp;lt;input /&amp;gt;&lt;br&gt;&amp;lt;button&amp;gt;&lt;br&gt;&amp;lt;/form&amp;gt;" style="text;html=1;align=center;verticalAlign=middle;resizable=0;points=[];autosize=1;strokeColor=none;fillColor=none;" parent="32" vertex="1">
                    <mxGeometry x="30" y="35" width="60" height="60" as="geometry"/>
                </mxCell>
                <mxCell id="34" value="" style="endArrow=classic;startArrow=classic;html=1;exitX=0.5;exitY=0;exitDx=0;exitDy=0;entryX=0.5;entryY=1;entryDx=0;entryDy=0;" parent="1" source="32" target="15" edge="1">
                    <mxGeometry width="50" height="50" relative="1" as="geometry">
                        <mxPoint x="350" y="770" as="sourcePoint"/>
                        <mxPoint x="400" y="720" as="targetPoint"/>
                    </mxGeometry>
                </mxCell>
                <mxCell id="36" value="Input" style="swimlane;" vertex="1" parent="1">
                    <mxGeometry x="180" y="960" width="120" height="120" as="geometry">
                        <mxRectangle x="235" y="600" width="80" height="23" as="alternateBounds"/>
                    </mxGeometry>
                </mxCell>
                <mxCell id="37" value="&amp;lt;label&amp;gt;&lt;br&gt;&amp;lt;input /&amp;gt;" style="text;html=1;align=center;verticalAlign=middle;resizable=0;points=[];autosize=1;strokeColor=none;fillColor=none;" vertex="1" parent="36">
                    <mxGeometry x="30" y="50" width="60" height="30" as="geometry"/>
                </mxCell>
            </root>
        </mxGraphModel>
    </diagram>
</mxfile>